<svg version="1" xmlns="http://www.w3.org/2000/svg" width="1061.333" height="1061.333" viewBox="0 0 796.000000 796.000000"><path d="M335 302v67h76V346.3l-6.7-.6c-3.8-.4-15.2-.7-25.5-.7H360v-52h51v-25h-51v-13.4c0-7.3-.3-14.8-.6-16.5l-.6-3.1H335v67zM284.2 245.2l.3 9.3h23l.3-9.3.3-9.2h-24.2l.3 9.2zM1 305.5V369h126V242h-22.8l-.6 3.1c-.3 1.7-.6 24.9-.6 51.5V345l-38.2-.2-38.3-.3-.5-51-.5-51-12.2-.3-12.3-.3v63.6zM156 318.5V369h24v-36.4c0-20 .3-37.1.6-38 .5-1.4 3.8-1.6 26-1.6H232v32.7c0 18.1.3 35.2.6 38l.7 5.3H257v-99.8l-3.1-.6c-1.7-.3-24.5-.6-50.5-.6H156v50.5zM440.3 268.7c-2.2.4-2.3.8-2.3 11.2v10.8l12.2.6c6.6.4 23.7.7 38 .7H514v15.7l-6.7.6c-3.8.4-20.9.7-38 .7H438v59.8l10.8.7c9.9.7 89 .1 89.6-.7 1-1 1.5-40.9.9-68.6l-.6-32.2-48.1.1c-26.5.1-49.1.4-50.3.6zM514 338v9l-25.2-.2-25.3-.3-.3-7.4c-.2-4.1-.1-8 .2-8.8.4-1 5.5-1.3 25.6-1.3h25v9zM567.8 268.7c-1.7.4-1.8 3.7-1.8 50.4V369H590.7l.6-21.8c.4-11.9.7-29 .7-38V293h28v25h25v-50l-37.7.1c-20.8.1-38.6.3-39.5.6zM670.3 269.2c-.4.7-.9 23.5-1.1 50.5l-.3 49.3 5.8.1c3.2.1 18 .4 32.8.8l27 .6-12.7 13-12.8 12.9V412h19.2l20.9-20.7 20.9-20.7V268h-24l-.2 38.2-.3 38.3-25.7.3-25.8.2v-37.3c0-27.7-.3-37.6-1.2-38.5-1.7-1.7-21.4-1.6-22.5 0zM284 319.5V369h24v-99h-24v49.5zM494.3 381.7l-6.3.4v32.6l-4.6.7c-2.6.3-19.6.6-37.9.6h-33.3l-.6 2.2c-.8 3-.8 93.6 0 96.5l.6 2.3H513V382h-4.9c-2.7 0-5.5-.1-6.3-.3-.7-.2-4.1-.1-7.5 0zm-6.5 84.4l.2 25.7-2.2.6c-3 .8-44.6.8-47.5 0l-2.3-.6v-25.3c0-19.3.3-25.5 1.3-25.8.6-.3 12.2-.5 25.7-.4l24.5.2.3 25.6zM3.7 389.7l-2.7.4V517h24v-51l13.3-.1c7.2-.1 30.1-.5 50.7-.8l37.5-.6.3-9.5c.2-5.2 0-10.5-.3-11.7l-.5-2.3-50.3-.2-50.2-.3v-26L76 414l50.5-.5v-23l-5-.7c-5.3-.7-113.1-.8-117.8-.1zM156 466.5V517l50.3-.2 50.2-.3v-100l-11.6-.3-11.6-.3-.7 4.7c-.3 2.6-.6 19.7-.6 38v33.3l-3.4.7c-4.9.9-46.3.1-47.3-.9-.4-.5-.9-17.7-1.1-38.3l-.3-37.4H156v50.5zM283 466.5v50.6l12.3-.3 12.2-.3.5-38 .5-38h51l.3 38.2.2 38.3h24V416H283v50.5z"/></svg>